<?xml version="1.0" encoding="UTF-8"?>
<svg version="1.1" xmlns="http://www.w3.org/2000/svg" width="1024" height="1024">
<path d="M0 0 C70.98365635 -1.49140865 140.91979561 19.96695491 195.46435547 66.06201172 C196.54086777 66.95171061 197.61770549 67.84101585 198.69482422 68.72998047 C211.8357281 79.67353441 223.91899213 91.58968729 234.46435547 105.06201172 C235.13982422 105.84705078 235.81529297 106.63208984 236.51123047 107.44091797 C258.55116031 133.14076316 275.13866787 164.93034266 285.46435547 197.06201172 C285.71137207 197.80531738 285.95838867 198.54862305 286.21289062 199.31445312 C289.56863781 209.45395268 292.16133657 219.6421747 294.21435547 230.12451172 C294.41295166 231.12732178 294.61154785 232.13013184 294.81616211 233.16333008 C297.92043468 249.82004572 298.84528382 266.39820981 298.77685547 283.31201172 C298.77412125 284.72333878 298.77412125 284.72333878 298.77133179 286.16317749 C298.72526928 300.31337062 298.26311894 314.14869573 295.46435547 328.06201172 C295.28211426 328.98127441 295.09987305 329.90053711 294.91210938 330.84765625 C293.60057359 337.29795799 292.08992223 343.68430435 290.46435547 350.06201172 C290.19848633 351.13829834 290.19848633 351.13829834 289.92724609 352.23632812 C277.09534012 403.40416774 244.27839288 447.91350747 213.29833984 489.59423828 C212.0610762 491.25907599 210.82543506 492.92512057 209.59130859 494.59228516 C201.67067725 505.28799838 193.59375411 515.80782241 185.11328125 526.06591797 C183.37980809 528.16435987 181.65392106 530.26887261 179.92919922 532.37451172 C174.10817357 539.4735358 168.24940166 546.53686414 162.2980957 553.52709961 C159.45101923 556.87619809 156.66422119 560.26785975 153.90185547 563.68701172 C150.02856275 568.44721225 145.95675555 572.99005955 141.80419922 577.50732422 C139.23643577 580.31085894 136.73538672 583.16546047 134.24169922 586.03466797 C131.41002599 589.26464248 128.5223304 592.44391828 125.64404297 595.63232422 C123.77290453 597.71807352 121.92510716 599.820188 120.08935547 601.93701172 C115.80509184 606.85160379 111.38305691 611.63932503 106.96435547 616.43261719 C105.430052 618.09927431 103.9000338 619.76978695 102.37060547 621.44091797 C97.43424404 626.82476825 92.45838957 632.1222944 87.24951172 637.24560547 C85.44516711 639.08153598 83.76404158 640.98256366 82.08935547 642.93701172 C79.34814098 646.12883681 76.45749659 649.10504149 73.46435547 652.06201172 C70.51252522 654.97827775 67.66046688 657.90807007 64.96435547 661.06201172 C61.48157129 665.13621208 57.68848609 668.85449825 53.87451172 672.61669922 C51.77975813 674.74200837 49.82670999 676.90934163 47.90185547 679.18701172 C40.07393967 688.24032555 29.89144286 696.89153208 17.49389648 698.28320312 C2.09052767 699.11257457 -9.6218133 696.42268848 -21.53564453 686.06201172 C-23.39375182 684.15113871 -25.10632671 682.19091461 -26.79345703 680.12841797 C-28.75591784 677.80074584 -30.86305225 675.69437081 -33.03564453 673.56201172 C-35.69834081 670.9349368 -38.24829203 668.29472161 -40.66064453 665.43701172 C-44.84677667 660.54336428 -49.47788237 656.09497434 -54.05004883 651.56713867 C-57.86552181 647.77449859 -61.52782342 643.92805053 -65.00048828 639.81591797 C-66.76175941 637.8036769 -68.63044292 635.93829186 -70.53564453 634.06201172 C-73.01527782 631.61537735 -75.39004829 629.14093397 -77.66064453 626.49951172 C-81.09860308 622.50425852 -84.68249313 618.65755782 -88.28564453 614.81201172 C-102.42114834 599.71966032 -116.27709708 584.39880147 -129.71508789 568.68139648 C-132.36614484 565.58312414 -135.02585833 562.49322797 -137.70751953 559.42138672 C-145.30194142 550.71997736 -152.70040766 541.87553867 -160.00634766 532.93066406 C-161.30737747 531.34093192 -162.61602285 529.75743724 -163.92626953 528.17529297 C-179.72693851 509.0681877 -194.98059734 489.28464863 -209.19726562 468.97021484 C-210.74666196 466.76115214 -212.30730499 464.56021049 -213.86767578 462.35888672 C-225.1735226 446.36623 -235.87828671 430.10744698 -245.53564453 413.06201172 C-245.91430664 412.3979834 -246.29296875 411.73395508 -246.68310547 411.04980469 C-281.39731539 349.64509424 -289.08981418 277.21471006 -270.30981445 209.45410156 C-261.94881591 180.28864735 -249.76380347 152.13305721 -232.53564453 127.06201172 C-232.13345703 126.47581055 -231.73126953 125.88960938 -231.31689453 125.28564453 C-223.56737728 114.06700745 -215.10559475 103.63249292 -205.85595703 93.60498047 C-203.93979324 91.50494238 -202.10613728 89.36885856 -200.28564453 87.18701172 C-191.4209866 77.03521377 -180.87045948 68.41707574 -170.16015625 60.30126953 C-168.66884247 59.16362169 -167.19689945 58.00069781 -165.72705078 56.83544922 C-119.28901251 20.60719241 -58.49743268 1.43061312 0 0 Z M-125.53564453 120.06201172 C-126.47408203 120.81095703 -127.41251953 121.55990234 -128.37939453 122.33154297 C-137.2606248 129.35850931 -137.2606248 129.35850931 -145.53564453 137.06201172 C-145.53564453 137.72201172 -145.53564453 138.38201172 -145.53564453 139.06201172 C-146.19564453 139.06201172 -146.85564453 139.06201172 -147.53564453 139.06201172 C-150.08259127 141.52213072 -152.25896822 144.35289409 -154.53564453 147.06201172 C-155.25880859 147.87541016 -155.98197266 148.68880859 -156.72705078 149.52685547 C-170.10189295 164.88478791 -183.24169293 183.54355493 -189.53564453 203.06201172 C-188.60793747 203.06565735 -187.68023041 203.06930298 -186.72441101 203.07305908 C-177.94208877 203.11107096 -169.16013291 203.16807251 -160.37806988 203.24591446 C-155.86409327 203.28526859 -151.35030822 203.3175158 -146.83618164 203.33300781 C-142.47224234 203.34825445 -138.1088301 203.38283999 -133.74512672 203.43032074 C-132.08798643 203.44505254 -130.43077085 203.45304798 -128.77356529 203.45389557 C-114.59277537 203.46843047 -104.49591506 205.84863378 -93.16064453 214.68701172 C-92.33830322 215.31019287 -91.51596191 215.93337402 -90.66870117 216.57543945 C-88.27995043 218.39042278 -85.90568485 220.22269393 -83.53564453 222.06201172 C-82.37572119 222.95684495 -81.2155925 223.85141214 -80.05517578 224.74560547 C-79.03810547 225.53064453 -78.02103516 226.31568359 -76.97314453 227.12451172 C-75.4121197 228.32301428 -73.85102514 229.52143023 -72.28759766 230.71679688 C-71.0193776 231.69058346 -69.75560978 232.67017757 -68.49462891 233.65332031 C-56.39219801 243.04267287 -45.3721601 248.90246833 -30.54003906 252.58032227 C-20.91547421 254.96770804 -13.46463684 258.31564584 -7.84643555 266.7956543 C-3.08355178 275.03067944 -2.80091182 284.57154045 -2.29003906 293.84838867 C-2.16059832 296.12532463 -1.99955465 298.39859846 -1.83642578 300.67333984 C-1.16985453 311.13174844 -1.68254984 319.49564335 -8.53564453 328.06201172 C-16.44723731 336.29652665 -24.63920785 337.44484353 -35.61376953 337.68115234 C-37.08772311 337.70424428 -38.56168156 337.72702699 -40.03564453 337.74951172 C-41.54088172 337.78273455 -43.0460914 337.81722869 -44.55126953 337.85302734 C-48.21252646 337.93736308 -51.87385759 338.00443845 -55.53564453 338.06201172 C-55.61455933 337.08470093 -55.61455933 337.08470093 -55.69506836 336.08764648 C-56.98869963 321.52455556 -62.30968623 310.37117082 -72.84814453 300.20654297 C-83.44847887 291.74784595 -96.07118482 287.91416197 -109.53564453 289.06201172 C-123.09822873 291.17727714 -135.0317134 297.70349429 -143.50830078 308.59716797 C-149.86946152 317.98359411 -152.28840886 326.83689071 -153.53564453 338.06201172 C-168.05564453 338.06201172 -182.57564453 338.06201172 -197.53564453 338.06201172 C-196.73729685 342.85209782 -195.67467596 346.95398141 -193.97314453 351.43701172 C-193.71065918 352.13036621 -193.44817383 352.8237207 -193.17773438 353.53808594 C-190.15526518 361.31440977 -186.46646192 368.71048301 -182.53564453 376.06201172 C-182.21337891 376.66787109 -181.89111328 377.27373047 -181.55908203 377.89794922 C-166.7584034 405.45368422 -144.57416124 430.69710818 -118.53564453 448.06201172 C-117.75527832 448.58456543 -116.97491211 449.10711914 -116.17089844 449.64550781 C-65.32531001 483.26679183 -4.52382429 495.74925679 55.35498047 483.73779297 C93.49209518 475.56045797 133.39677667 457.99870721 160.46435547 429.06201172 C162.8365836 426.66278262 165.22049287 424.29041824 167.68310547 421.98388672 C191.20283476 399.59181569 207.21685407 368.88701637 216.46435547 338.06201172 C201.61435547 338.06201172 186.76435547 338.06201172 171.46435547 338.06201172 C171.13435547 334.43201172 170.80435547 330.80201172 170.46435547 327.06201172 C168.64190867 319.49184808 165.05970121 313.27330321 160.46435547 307.06201172 C159.88685547 306.19576172 159.30935547 305.32951172 158.71435547 304.43701172 C150.27247802 295.52614108 138.27696759 289.74256385 126.04248047 288.89404297 C113.86586755 288.79189018 103.32481109 291.77384887 93.46435547 299.06201172 C92.91134766 299.45775391 92.35833984 299.85349609 91.78857422 300.26123047 C83.43826371 306.72300069 77.85995167 316.86140855 75.46435547 327.06201172 C75.04323522 330.72281389 74.73275689 334.38710169 74.46435547 338.06201172 C70.25015556 338.01733142 66.03733313 337.94696776 61.82397461 337.85449219 C60.3957056 337.82655931 58.96728996 337.80520957 57.53881836 337.79101562 C47.48926667 337.68526797 37.60299548 337.3259896 29.52685547 330.62451172 C28.84623047 329.77888672 28.16560547 328.93326172 27.46435547 328.06201172 C26.74248047 327.25763672 26.02060547 326.45326172 25.27685547 325.62451172 C21.63911557 320.48150014 21.13390763 315.33988421 21.21435547 309.18701172 C21.22112305 308.42324219 21.22789062 307.65947266 21.23486328 306.87255859 C21.35067935 300.09058518 21.73018277 293.32680559 22.21435547 286.56201172 C22.2759082 285.57217285 22.33746094 284.58233398 22.40087891 283.5625 C23.20030449 273.68909647 25.78129446 265.51164276 33.23388672 258.73779297 C38.98100002 254.41990925 45.63145077 252.99392751 52.48925781 251.265625 C65.62192253 247.94771298 74.31324527 242.61256026 85.01123047 234.44873047 C92.01608232 229.10448466 99.12775762 223.9054026 106.23828125 218.703125 C108.31543541 217.17179902 110.37437034 215.61919086 112.42919922 214.05810547 C113.62823367 213.1633272 114.82744053 212.2687799 116.02685547 211.37451172 C117.54472656 210.22402344 117.54472656 210.22402344 119.09326172 209.05029297 C128.75386827 203.35243812 138.9694114 203.59197029 149.84716797 203.55029297 C151.51440734 203.53341961 153.1816342 203.51526586 154.84884644 203.49589539 C159.20524177 203.4486773 163.56158635 203.41868655 167.91815186 203.39245605 C172.37636332 203.36250714 176.83440034 203.31602657 181.29248047 203.27099609 C190.01635251 203.18528431 198.74024094 203.1177974 207.46435547 203.06201172 C200.40272844 181.27781141 185.72530425 161.69253166 170.27685547 145.08544922 C168.46435547 143.06201172 168.46435547 143.06201172 166.46435547 140.06201172 C165.80435547 140.06201172 165.14435547 140.06201172 164.46435547 140.06201172 C164.12210938 139.22283203 164.12210938 139.22283203 163.77294922 138.36669922 C154.84432332 122.6416566 131.84060413 110.67153561 116.46435547 102.06201172 C115.58481201 101.55661865 115.58481201 101.55661865 114.6875 101.04101562 C41.30524194 58.95028772 -59.82671004 66.52506359 -125.53564453 120.06201172 Z M-198.53564453 230.06201172 C-200.63804227 236.90230046 -202.40169859 243.65301153 -203.72314453 250.68701172 C-203.90039062 251.57646484 -204.07763672 252.46591797 -204.26025391 253.38232422 C-204.5106543 254.69716797 -204.5106543 254.69716797 -204.76611328 256.03857422 C-204.91459717 256.81281738 -205.06308105 257.58706055 -205.21606445 258.38476562 C-205.63810246 261.9203415 -205.53564453 265.50133582 -205.53564453 269.06201172 C-163.62564453 269.06201172 -121.71564453 269.06201172 -78.53564453 269.06201172 C-77.87564453 267.74201172 -77.21564453 266.42201172 -76.53564453 265.06201172 C-83.97455749 258.59117648 -91.56208081 252.4281708 -99.49365234 246.56958008 C-102.88204084 244.06346512 -106.23437974 241.52909034 -109.52392578 238.89404297 C-110.15758057 238.38679687 -110.79123535 237.87955078 -111.4440918 237.35693359 C-112.64053893 236.3938119 -113.83270622 235.42534042 -115.01977539 234.45068359 C-120.34023834 230.1732136 -124.20555531 229.91358184 -130.87451172 229.94848633 C-131.60661362 229.9483403 -132.33871552 229.94819427 -133.09300232 229.94804382 C-135.50620515 229.94873896 -137.91933023 229.95651264 -140.33251953 229.96435547 C-142.0083207 229.96622107 -143.68412241 229.9676443 -145.35992432 229.96864319 C-149.76578279 229.9724572 -154.17160819 229.98227796 -158.57745361 229.99334717 C-163.07523145 230.00358529 -167.57301464 230.00814595 -172.07080078 230.01318359 C-180.89242988 230.02390122 -189.71403445 230.04096425 -198.53564453 230.06201172 Z M130.40576172 237.05810547 C129.69766357 237.61062988 128.98956543 238.1631543 128.26000977 238.73242188 C127.52306885 239.31556152 126.78612793 239.89870117 126.02685547 240.49951172 C124.86246948 241.41289307 124.86246948 241.41289307 123.67456055 242.34472656 C116.41051425 248.06130171 109.21521606 253.86547142 102.08691406 259.75048828 C100.59569414 260.95584992 99.0571507 262.10203856 97.51513672 263.24169922 C96.83837891 263.84240234 96.16162109 264.44310547 95.46435547 265.06201172 C95.46435547 266.05201172 95.46435547 267.04201172 95.46435547 268.06201172 C97.953331 269.30649948 99.61368355 269.18784137 102.39892578 269.18899536 C103.44213989 269.19181519 104.485354 269.19463501 105.56018066 269.19754028 C106.7093396 269.19551605 107.85849854 269.19349182 109.04248047 269.19140625 C110.85226379 269.19403473 110.85226379 269.19403473 112.6986084 269.19671631 C116.01259004 269.2003707 119.32650948 269.1995038 122.64048767 269.19633722 C126.10423874 269.19381022 129.56798711 269.19615211 133.03173828 269.19772339 C138.84912596 269.19954408 144.66650096 269.19714139 150.48388672 269.19238281 C157.21514019 269.18694038 163.94636338 269.18870311 170.67761612 269.19420922 C176.45089096 269.19874318 182.22415667 269.1993895 187.99743271 269.19677055 C191.44820401 269.19520934 194.89896106 269.19500975 198.34973145 269.19830704 C202.19524315 269.20172466 206.04072077 269.19699136 209.88623047 269.19140625 C211.0353894 269.19343048 212.18454834 269.19545471 213.36853027 269.19754028 C214.41174438 269.19472046 215.4549585 269.19190063 216.52978516 269.18899536 C217.43976257 269.18861834 218.34973999 269.18824131 219.28729248 269.18785286 C221.51133331 269.2030452 221.51133331 269.2030452 223.46435547 268.06201172 C223.27004735 259.17683119 221.7016449 250.7397778 219.91357422 242.05810547 C219.67876343 240.90209839 219.44395264 239.74609131 219.20202637 238.55505371 C218.62631286 235.72330404 218.04700298 232.89234133 217.46435547 230.06201172 C207.67616295 229.96918226 197.8880758 229.89818113 188.09953213 229.85476303 C183.55390775 229.8339206 179.00858536 229.80566443 174.46313477 229.76025391 C170.0735027 229.71667631 165.68416044 229.69284947 161.29432869 229.68250275 C159.62262474 229.67513269 157.95093601 229.66074059 156.279356 229.63909149 C153.93109185 229.60989804 151.58401318 229.6060622 149.2355957 229.60791016 C148.55010651 229.59352905 147.86461731 229.57914795 147.15835571 229.56433105 C140.27497368 229.62264172 135.68615919 232.91657661 130.40576172 237.05810547 Z " fill="#94E1FE" transform="translate(502.53564453125,69.93798828125)"/>
<path d="M0 0 C2.66178353 2.64862302 5.31865098 5.29263924 7.8671875 8.05078125 C8.35638672 8.57986084 8.84558594 9.10894043 9.34960938 9.65405273 C9.85298828 10.20134033 10.35636719 10.74862793 10.875 11.3125 C11.40673828 11.89008057 11.93847656 12.46766113 12.48632812 13.06274414 C17.3461156 18.35495776 22.07685969 23.74342917 26.73828125 29.2109375 C32.32136381 35.75441476 37.95930669 42.21842254 43.7734375 48.55859375 C45.69133207 50.66154833 47.57376045 52.78669156 49.4375 54.9375 C52.86971551 58.88901053 56.41383951 62.73516535 59.95947266 66.58447266 C62.45097058 69.29417909 64.91145824 72.02242869 67.3125 74.8125 C71.32959745 79.44910163 75.55061951 83.8952765 79.74536133 88.37036133 C83.03371367 91.88203724 86.29539018 95.41131709 89.5 99 C95.55492421 105.76989681 101.7880563 112.37457279 108 119 C108.61713867 119.65838867 109.23427734 120.31677734 109.87011719 120.99511719 C110.48790039 121.65415039 111.10568359 122.31318359 111.7421875 122.9921875 C112.36182373 123.653396 112.98145996 124.31460449 113.61987305 124.99584961 C114.87262181 126.33123652 116.12669064 127.66538629 117.38208008 128.99829102 C120.52291489 132.33657538 123.63756018 135.69354054 126.70703125 139.09765625 C140.44090452 154.2615647 154.58296556 163.39528447 175.4765625 165.3203125 C192.87950066 165.90957677 208.70673518 159.48042298 221.390625 147.69921875 C223.08183031 146.07830568 223.08183031 146.07830568 224 144 C224.66 144 225.32 144 226 144 C226.25559189 143.41876373 226.51118378 142.83752747 226.77452087 142.23867798 C228.12353974 139.77432036 229.6116061 138.15430602 231.60766602 136.18115234 C232.34505508 135.44714203 233.08244415 134.71313171 233.84217834 133.95687866 C234.63804855 133.17446808 235.43391876 132.3920575 236.25390625 131.5859375 C237.06995834 130.77508698 237.88601044 129.96423645 238.72679138 129.1288147 C241.33399793 126.53942271 243.94778988 123.95681313 246.5625 121.375 C249.17990124 118.7851857 251.79584649 116.19394268 254.40892029 113.59976196 C256.03547449 111.98549688 257.66469368 110.37391194 259.29676819 108.76522827 C260.0310051 108.03752228 260.765242 107.30981628 261.52172852 106.56005859 C262.17077652 105.91926361 262.81982452 105.27846863 263.48854065 104.61825562 C265.08933633 103.05773603 265.08933633 103.05773603 266 101 C266.66 101 267.32 101 268 101 C268.25652344 100.41992188 268.51304687 99.83984375 268.77734375 99.2421875 C270.11732815 96.78483591 271.59116213 95.10828537 273.5625 93.125 C274.18253906 92.48820313 274.80257813 91.85140625 275.44140625 91.1953125 C284.11865478 83.75010078 292.93832617 80.93578542 303.82421875 78.171875 C305.49191136 77.73506844 307.1592061 77.29674039 308.8261261 76.85699463 C313.22175384 75.70168738 317.62237169 74.56667812 322.02441406 73.43609619 C326.35856118 72.31948114 330.68789554 71.18455999 335.01757812 70.05078125 C341.88094846 68.25582696 348.74684033 66.47087671 355.61474609 64.69335938 C365.36668583 62.16855133 375.11232757 59.62011301 384.85462379 57.05835724 C386.53576811 56.61639064 388.21701943 56.17483086 389.89838219 55.73369598 C392.21482846 55.12587835 394.5309291 54.51676214 396.84692383 53.90722656 C397.5313814 53.72780769 398.21583897 53.54838882 398.92103767 53.36353302 C401.64552164 52.64494453 404.32583309 51.89138897 407 51 C410.25013785 58.87595447 412.21430722 67.08660533 414.32421875 75.3203125 C414.74719056 76.9573999 415.17055513 78.59438587 415.59428406 80.23127747 C416.72910481 84.61970709 417.85857196 89.00949715 418.98674774 93.39963913 C420.15811169 97.95529976 421.33337014 102.50995545 422.50830078 107.06469727 C423.93964542 112.61429899 425.37051282 118.16402171 426.79919434 123.71430969 C429.64269126 134.75826015 432.50613385 145.79676427 435.39175606 156.82978058 C436.52495616 161.16508833 437.65440016 165.5013762 438.78379345 169.837677 C439.66425635 173.21686726 440.54720078 176.59537007 441.43563843 179.97247314 C442.40993922 183.67631489 443.37340972 187.38292406 444.3359375 191.08984375 C444.62442062 192.17860306 444.91290375 193.26736237 445.21012878 194.38911438 C445.59023857 195.86313972 445.59023857 195.86313972 445.97802734 197.36694336 C446.20114594 198.21961288 446.42426453 199.07228241 446.65414429 199.95079041 C447 202 447 202 446 204 C444.07435608 204.73594666 444.07435608 204.73594666 441.50415039 205.42944336 C440.53688019 205.69456223 439.56960999 205.95968109 438.57302856 206.23283386 C437.5086557 206.51564713 436.44428284 206.79846039 435.34765625 207.08984375 C434.24380585 207.38969681 433.13995544 207.68954987 432.00265503 207.99848938 C428.35803518 208.98611672 424.71036434 209.96193071 421.0625 210.9375 C418.51556217 211.62479132 415.96876967 212.31262146 413.42211914 213.00097656 C398.47267097 217.0336358 383.50329419 220.98822448 368.51620483 224.87850952 C350.59868988 229.53224045 332.73725272 234.38958469 314.875 239.25 C308.78653384 240.90652764 302.69803399 242.56293123 296.609375 244.21875 C295.85924322 244.42275925 295.10911144 244.62676849 294.3362484 244.83695984 C279.60816832 248.8416779 264.86970082 252.80687943 250.125 256.75 C248.99608337 257.05192261 247.86716675 257.35384521 246.70404053 257.66491699 C241.06102678 259.17382626 235.41777641 260.68184821 229.77441406 262.18945312 C218.18135368 265.28703095 206.59087648 268.39426255 195 271.5 C190.29559802 272.7605104 185.59117488 274.02094172 180.88671875 275.28125 C179.72580215 275.59225647 178.56488556 275.90326294 177.36878967 276.22369385 C170.6612124 278.02031249 163.95306965 279.81479857 157.24435425 281.60716248 C129.42610377 289.03946421 101.62334064 296.52752904 73.82989502 304.05197144 C69.20508606 305.30402286 64.58014655 306.55559122 59.95515442 307.80696583 C55.43490477 309.03000979 50.91470757 310.25324754 46.39453125 311.4765625 C45.51419472 311.71480932 44.63385818 311.95305614 43.72684479 312.19852257 C34.18408325 314.78133411 24.64217793 317.36722458 15.10292625 319.96297169 C9.49597858 321.4886749 3.88793404 323.01031062 -1.72058105 324.53024292 C-3.92705512 325.12925183 -6.13303985 325.73006649 -8.33850098 326.33279419 C-11.29869073 327.14170999 -14.26043541 327.94465376 -17.22265625 328.74609375 C-18.06935379 328.97924286 -18.91605133 329.21239197 -19.78840637 329.4526062 C-23.34234986 330.40811307 -26.29393812 331 -30 331 C-32.14728871 323.00039015 -34.29278884 315.00030125 -36.4375 307 C-36.93511337 305.14393127 -36.93511337 305.14393127 -37.44277954 303.25036621 C-41.43274047 288.36431713 -45.41034347 273.47508864 -49.359375 258.578125 C-49.53820032 257.90360794 -49.71702564 257.22909088 -49.90126991 256.53413391 C-50.80242651 253.13492782 -51.70343944 249.73568366 -52.60440063 246.33642578 C-52.78275578 245.66351501 -52.96111092 244.99060425 -53.14487076 244.29730225 C-53.50834806 242.92592777 -53.87180972 241.55454915 -54.2352562 240.1831665 C-58.67375564 223.43693637 -63.15255939 206.70340911 -67.75 190 C-74.41931774 165.75751196 -80.7486854 141.42447127 -87.11303711 117.10058594 C-87.79016235 114.51283449 -88.46729815 111.92508581 -89.14446449 109.33734512 C-89.59199424 107.62711787 -90.03948247 105.91687975 -90.48692894 104.20663071 C-93.28385651 93.51815885 -96.09761597 82.83441393 -98.94271088 72.15865898 C-99.45544769 70.23447993 -99.96750679 68.31012033 -100.47955322 66.38575745 C-102.0104995 60.63267002 -103.54580068 54.88082077 -105.08935547 49.13110352 C-105.61839289 47.14475494 -106.14721634 45.15834936 -106.67578125 43.171875 C-107.03505959 41.8450898 -107.03505959 41.8450898 -107.40159607 40.49150085 C-107.61494095 39.68574112 -107.82828583 38.87998138 -108.0480957 38.04980469 C-108.2334639 37.35844421 -108.41883209 36.66708374 -108.6098175 35.95477295 C-109 34 -109 34 -109 30 C-99.35354951 27.28505408 -89.6927595 24.63490095 -80 22.08984375 C-79.04073105 21.83785721 -78.0814621 21.58587067 -77.09312439 21.32624817 C-75.09308829 20.80098855 -73.09304233 20.27576645 -71.09298706 19.75057983 C-47.29846493 13.49551128 -23.62333348 6.87132259 0 0 Z M-30 43 C-30.34029508 46.47852168 -30.6709387 49.95789909 -31 53.4375 C-31.14308594 54.89833008 -31.14308594 54.89833008 -31.2890625 56.38867188 C-31.84174098 62.29048849 -32.09807559 68.07255678 -32 74 C-33.64355469 74.17208984 -33.64355469 74.17208984 -35.3203125 74.34765625 C-40.59281911 75.00875283 -45.71126393 76.20410065 -50.875 77.4375 C-52.298125 77.76331055 -52.298125 77.76331055 -53.75 78.09570312 C-55.10738281 78.41764648 -55.10738281 78.41764648 -56.4921875 78.74609375 C-57.31058105 78.93872803 -58.12897461 79.1313623 -58.97216797 79.32983398 C-61.19589977 79.89622794 -61.19589977 79.89622794 -63 82 C-59.33547148 83.42842911 -55.66927431 84.85247676 -52.00146484 86.27246094 C-50.13939585 86.99441847 -48.27867593 87.71985238 -46.41796875 88.4453125 C-44.66806641 89.12207031 -44.66806641 89.12207031 -42.8828125 89.8125 C-41.26463623 90.44091797 -41.26463623 90.44091797 -39.61376953 91.08203125 C-37.14721242 92.11045434 -37.14721242 92.11045434 -35 92 C-35.09087891 93.13429443 -35.09087891 93.13429443 -35.18359375 94.29150391 C-35.45816693 97.73581328 -35.72911742 101.18039849 -36 104.625 C-36.09539062 105.81480469 -36.19078125 107.00460937 -36.2890625 108.23046875 C-36.37929688 109.38417969 -36.46953125 110.53789063 -36.5625 111.7265625 C-36.64628906 112.78439941 -36.73007812 113.84223633 -36.81640625 114.93212891 C-36.99779014 117.96307303 -37.03182747 120.96445471 -37 124 C-33.85770061 120.95860013 -31.03209502 117.74806292 -28.25 114.375 C-27.05117188 112.93253906 -27.05117188 112.93253906 -25.828125 111.4609375 C-23.80122533 109.24336159 -23.80122533 109.24336159 -24 107 C-23.34 107 -22.68 107 -22 107 C-20.84256068 105.42459648 -19.68862521 103.84480725 -18.609375 102.21484375 C-17 101 -17 101 -14.46484375 101.05859375 C-8.79089498 102.60021906 -3.47861215 104.98537522 1.91992188 107.29296875 C2.78552734 107.65261719 3.65113281 108.01226563 4.54296875 108.3828125 C5.32696045 108.71684082 6.11095215 109.05086914 6.91870117 109.39501953 C9.16339647 110.26134436 9.16339647 110.26134436 12 109 C11.65743164 108.46632813 11.31486328 107.93265625 10.96191406 107.3828125 C9.38717459 104.92447512 7.81856452 102.46228152 6.25 100 C5.71117187 99.16082031 5.17234375 98.32164062 4.6171875 97.45703125 C1.41867817 92.42522999 -1.43336106 87.38246612 -4 82 C-3.34 82 -2.68 82 -2 82 C-0.54340023 80.38617052 0.84048951 78.70636784 2.1875 77 C6.00870141 72.22040665 9.92936174 67.56801529 14 63 C10.36171944 61.71746804 7.83700957 62.29074761 4.140625 63.21484375 C2.46806641 63.62573242 2.46806641 63.62573242 0.76171875 64.04492188 C-0.39714844 64.33947266 -1.55601562 64.63402344 -2.75 64.9375 C-3.92433594 65.22818359 -5.09867188 65.51886719 -6.30859375 65.81835938 C-9.20790223 66.53729359 -12.10478324 67.26479233 -15 68 C-15.27255615 67.27530518 -15.5451123 66.55061035 -15.82592773 65.80395508 C-16.9654881 63.08242236 -18.27108057 60.66603602 -19.78515625 58.13671875 C-20.31560547 57.25048828 -20.84605469 56.36425781 -21.39257812 55.45117188 C-21.94365234 54.53916016 -22.49472656 53.62714844 -23.0625 52.6875 C-23.61744141 51.75615234 -24.17238281 50.82480469 -24.74414062 49.86523438 C-25.27330078 48.98544922 -25.80246094 48.10566406 -26.34765625 47.19921875 C-26.83242432 46.39315186 -27.31719238 45.58708496 -27.81665039 44.7565918 C-28.20715576 44.1769165 -28.59766113 43.59724121 -29 43 C-29.33 43 -29.66 43 -30 43 Z " fill="#E0F8FE" transform="translate(334,618)"/>
<path d="M0 0 C2.66178353 2.64862302 5.31865098 5.29263924 7.8671875 8.05078125 C8.35638672 8.57986084 8.84558594 9.10894043 9.34960938 9.65405273 C9.85298828 10.20134033 10.35636719 10.74862793 10.875 11.3125 C11.40673828 11.89008057 11.93847656 12.46766113 12.48632812 13.06274414 C17.3461156 18.35495776 22.07685969 23.74342917 26.73828125 29.2109375 C32.32136381 35.75441476 37.95930669 42.21842254 43.7734375 48.55859375 C45.69133207 50.66154833 47.57376045 52.78669156 49.4375 54.9375 C52.86971551 58.88901053 56.41383951 62.73516535 59.95947266 66.58447266 C62.45097058 69.29417909 64.91145824 72.02242869 67.3125 74.8125 C71.32959745 79.44910163 75.55061951 83.8952765 79.74536133 88.37036133 C83.03371367 91.88203724 86.29539018 95.41131709 89.5 99 C93.29268656 103.24639112 97.170309 107.40765522 101.0625 111.5625 C109.2577372 120.32901343 109.2577372 120.32901343 112.875 124.3125 C113.49117187 124.98925781 114.10734375 125.66601562 114.7421875 126.36328125 C116 128 116 128 116 130 C98.42834334 135.04179226 80.81488494 139.88967301 63.125 144.5 C62.22728882 144.73397491 61.32957764 144.96794983 60.40466309 145.20901489 C56.80022818 146.14800057 53.19561586 147.08630085 49.59075928 148.02366638 C41.68066127 150.08088705 33.7759555 152.15795963 25.875 154.25 C25.22854523 154.42108276 24.58209045 154.59216553 23.91604614 154.76843262 C5.38120204 159.67637687 -13.13492079 164.65499617 -31.65301514 169.62567139 C-35.01650162 170.52721646 -38.38101841 171.42483819 -41.74560547 172.32226562 C-45.76088295 173.39456704 -49.76970071 174.48678038 -53.77392578 175.59960938 C-54.65359512 175.84060364 -55.53326447 176.0815979 -56.43959045 176.32989502 C-58.05229317 176.7719254 -59.66303264 177.22121387 -61.27122498 177.67938232 C-64.93710329 178.67503161 -67.37497182 179.11556585 -71 178 C-75.65967646 160.42217255 -80.31375596 142.84287289 -84.96224976 125.26208496 C-87.47926689 115.74357745 -90.00026581 106.22613717 -92.525177 96.70972061 C-94.38688396 89.69189769 -96.24488239 82.67309893 -98.1003418 75.65362167 C-99.22363859 71.4045874 -100.34870685 67.1560394 -101.47790527 62.90856934 C-102.54454993 58.89618603 -103.60656183 54.88260519 -104.66505814 50.86806488 C-105.05634391 49.38738514 -105.44933281 47.90715429 -105.84412766 46.42740631 C-106.38388646 44.40329898 -106.91754288 42.3776776 -107.44970703 40.3515625 C-107.7507132 39.21541504 -108.05171936 38.07926758 -108.36184692 36.90869141 C-109 34 -109 34 -109 30 C-99.35354951 27.28505408 -89.6927595 24.63490095 -80 22.08984375 C-79.04073105 21.83785721 -78.0814621 21.58587067 -77.09312439 21.32624817 C-75.09308829 20.80098855 -73.09304233 20.27576645 -71.09298706 19.75057983 C-47.29846493 13.49551128 -23.62333348 6.87132259 0 0 Z M-30 43 C-30.34029508 46.47852168 -30.6709387 49.95789909 -31 53.4375 C-31.14308594 54.89833008 -31.14308594 54.89833008 -31.2890625 56.38867188 C-31.84174098 62.29048849 -32.09807559 68.07255678 -32 74 C-33.64355469 74.17208984 -33.64355469 74.17208984 -35.3203125 74.34765625 C-40.59281911 75.00875283 -45.71126393 76.20410065 -50.875 77.4375 C-52.298125 77.76331055 -52.298125 77.76331055 -53.75 78.09570312 C-55.10738281 78.41764648 -55.10738281 78.41764648 -56.4921875 78.74609375 C-57.31058105 78.93872803 -58.12897461 79.1313623 -58.97216797 79.32983398 C-61.19589977 79.89622794 -61.19589977 79.89622794 -63 82 C-59.33547148 83.42842911 -55.66927431 84.85247676 -52.00146484 86.27246094 C-50.13939585 86.99441847 -48.27867593 87.71985238 -46.41796875 88.4453125 C-44.66806641 89.12207031 -44.66806641 89.12207031 -42.8828125 89.8125 C-41.26463623 90.44091797 -41.26463623 90.44091797 -39.61376953 91.08203125 C-37.14721242 92.11045434 -37.14721242 92.11045434 -35 92 C-35.09087891 93.13429443 -35.09087891 93.13429443 -35.18359375 94.29150391 C-35.45816693 97.73581328 -35.72911742 101.18039849 -36 104.625 C-36.09539062 105.81480469 -36.19078125 107.00460937 -36.2890625 108.23046875 C-36.37929688 109.38417969 -36.46953125 110.53789063 -36.5625 111.7265625 C-36.64628906 112.78439941 -36.73007812 113.84223633 -36.81640625 114.93212891 C-36.99779014 117.96307303 -37.03182747 120.96445471 -37 124 C-33.85770061 120.95860013 -31.03209502 117.74806292 -28.25 114.375 C-27.05117188 112.93253906 -27.05117188 112.93253906 -25.828125 111.4609375 C-23.80122533 109.24336159 -23.80122533 109.24336159 -24 107 C-23.34 107 -22.68 107 -22 107 C-20.84256068 105.42459648 -19.68862521 103.84480725 -18.609375 102.21484375 C-17 101 -17 101 -14.46484375 101.05859375 C-8.79089498 102.60021906 -3.47861215 104.98537522 1.91992188 107.29296875 C2.78552734 107.65261719 3.65113281 108.01226563 4.54296875 108.3828125 C5.32696045 108.71684082 6.11095215 109.05086914 6.91870117 109.39501953 C9.16339647 110.26134436 9.16339647 110.26134436 12 109 C11.65743164 108.46632813 11.31486328 107.93265625 10.96191406 107.3828125 C9.38717459 104.92447512 7.81856452 102.46228152 6.25 100 C5.71117187 99.16082031 5.17234375 98.32164062 4.6171875 97.45703125 C1.41867817 92.42522999 -1.43336106 87.38246612 -4 82 C-3.34 82 -2.68 82 -2 82 C-0.54340023 80.38617052 0.84048951 78.70636784 2.1875 77 C6.00870141 72.22040665 9.92936174 67.56801529 14 63 C10.36171944 61.71746804 7.83700957 62.29074761 4.140625 63.21484375 C2.46806641 63.62573242 2.46806641 63.62573242 0.76171875 64.04492188 C-0.39714844 64.33947266 -1.55601562 64.63402344 -2.75 64.9375 C-3.92433594 65.22818359 -5.09867188 65.51886719 -6.30859375 65.81835938 C-9.20790223 66.53729359 -12.10478324 67.26479233 -15 68 C-15.27255615 67.27530518 -15.5451123 66.55061035 -15.82592773 65.80395508 C-16.9654881 63.08242236 -18.27108057 60.66603602 -19.78515625 58.13671875 C-20.31560547 57.25048828 -20.84605469 56.36425781 -21.39257812 55.45117188 C-21.94365234 54.53916016 -22.49472656 53.62714844 -23.0625 52.6875 C-23.61744141 51.75615234 -24.17238281 50.82480469 -24.74414062 49.86523438 C-25.27330078 48.98544922 -25.80246094 48.10566406 -26.34765625 47.19921875 C-26.83242432 46.39315186 -27.31719238 45.58708496 -27.81665039 44.7565918 C-28.20715576 44.1769165 -28.59766113 43.59724121 -29 43 C-29.33 43 -29.66 43 -30 43 Z " fill="#C9F0FE" transform="translate(334,618)"/>
<path d="M0 0 C2.81101005 3.71916686 3.82692035 7.51352258 4.90112305 12.00585938 C5.06737183 12.69106155 5.23362061 13.37626373 5.40490723 14.08222961 C5.94892143 16.33414371 6.48060135 18.58876238 7.01171875 20.84375 C7.3879934 22.41660252 7.76485895 23.98931379 8.14228821 25.56188965 C8.93006844 28.8523437 9.71197507 32.14412012 10.48950195 35.43701172 C11.4852004 39.65259658 12.49345089 43.86505405 13.50586224 48.07665253 C14.28485852 51.32185941 15.05818984 54.56839502 15.82972145 57.81538391 C16.19940668 59.36904246 16.57060791 60.92234112 16.9433651 62.4752655 C17.46353323 64.64694168 17.9762907 66.82023757 18.48706055 68.99414062 C18.78001511 70.22926392 19.07296967 71.46438721 19.37480164 72.73693848 C19.92372535 75.60190415 20.1331084 78.09717588 20 81 C20.66 81 21.32 81 22 81 C22.495 79.515 22.495 79.515 23 78 C24.390625 76.59765625 24.390625 76.59765625 26.25 75.0625 C29.9809289 71.89686336 33.60124007 68.63942848 37.1875 65.3125 C37.74139404 64.79961426 38.29528809 64.28672852 38.8659668 63.75830078 C40.00763454 62.70085577 41.14898912 61.64307256 42.29003906 60.58496094 C46.64414178 56.54914785 51.00906852 52.52504421 55.37402344 48.50097656 C57.05611623 46.94819781 58.73513303 45.3921354 60.4140625 43.8359375 C61.50512159 42.82803109 62.59626428 41.82021517 63.6875 40.8125 C64.19289307 40.34255615 64.69828613 39.8726123 65.21899414 39.38842773 C69.84517194 35.12552479 69.84517194 35.12552479 73.875 34.6875 C77 35 77 35 79.3125 36.75 C81.10932494 39.14576659 81.71165598 40.05556396 82 43 C81.21658681 45.62144975 80.35894542 48.05604667 79.34375 50.5859375 C79.04999985 51.34347321 78.75624969 52.10100891 78.45359802 52.88150024 C77.48004766 55.38378449 76.49057966 57.87941299 75.5 60.375 C74.81767533 62.11298094 74.13612624 63.85126655 73.45532227 65.58984375 C72.03298756 69.21793982 70.60413987 72.84339446 69.17236328 76.46777344 C67.3815293 81.01240396 65.62552873 85.56944859 63.88473511 90.13345337 C62.56287898 93.59654531 61.2293914 97.05509205 59.89404297 100.51300049 C59.26108546 102.15868193 58.63259417 103.80608877 58.00878906 105.45526123 C50.81956256 124.42516521 50.81956256 124.42516521 43.1484375 128.5234375 C42.23320313 128.80445313 41.31796875 129.08546875 40.375 129.375 C38.99441406 129.81972656 38.99441406 129.81972656 37.5859375 130.2734375 C35.39787365 130.88821073 33.21015755 131.47080735 31 132 C31.58471828 125.93200367 33.38872281 120.72500733 35.5625 115.05078125 C35.9138501 114.11574265 36.2652002 113.18070404 36.62719727 112.21733093 C37.74478444 109.24648304 38.87191736 106.2793766 40 103.3125 C41.12635614 100.33429318 42.25068542 97.35534052 43.37280273 94.37553406 C44.06998575 92.52583487 44.76991504 90.67716792 45.47290039 88.82966614 C45.7899292 87.99166977 46.10695801 87.1536734 46.43359375 86.2902832 C46.71259521 85.5563887 46.99159668 84.8224942 47.27905273 84.06636047 C47.97865552 82.06117701 48.51994149 80.06762904 49 78 C44.0694448 82.23044616 39.26379421 86.5839882 34.5 91 C32.83506699 92.53643868 31.16953238 94.07222294 29.50390625 95.60791016 C28.18398953 96.82969022 26.8725415 98.060606 25.5625 99.29296875 C24.881875 99.91816406 24.20125 100.54335938 23.5 101.1875 C22.9328125 101.71730469 22.365625 102.24710937 21.78125 102.79296875 C19.52152055 104.32423279 17.70481616 104.73253811 15 105 C12.16286436 103.61442213 10.22998296 102.22998296 8 100 C7.34188843 98.04006958 7.34188843 98.04006958 6.76318359 95.61376953 C6.54310638 94.70587677 6.32302917 93.79798401 6.09628296 92.86257935 C5.86599396 91.87925629 5.63570496 90.89593323 5.3984375 89.8828125 C5.1571109 88.87411102 4.9157843 87.86540955 4.66714478 86.82614136 C4.15779201 84.69008798 3.65197778 82.55318821 3.14941406 80.41552734 C2.37931379 77.14332951 1.59681865 73.87428421 0.8125 70.60546875 C0.31957112 68.53142606 -0.17264024 66.45721268 -0.6640625 64.3828125 C-1.0155687 62.9139006 -1.0155687 62.9139006 -1.37417603 61.41531372 C-1.58794891 60.50111664 -1.8017218 59.58691956 -2.02197266 58.64501953 C-2.30604477 57.44161423 -2.30604477 57.44161423 -2.59585571 56.21389771 C-3 54 -3 54 -3 50 C-3.66 49.67 -4.32 49.34 -5 49 C-5 48.01 -5 47.02 -5 46 C-5.14367508 46.59611084 -5.28735016 47.19222168 -5.43537903 47.80639648 C-6.9382758 54.03760319 -8.44821212 60.26707433 -9.9621582 66.49560547 C-10.52547204 68.81711186 -11.08701872 71.13904783 -11.64672852 73.46142578 C-12.45379447 76.80877668 -13.26730443 80.15450657 -14.08203125 83.5 C-14.45253349 85.04578735 -14.45253349 85.04578735 -14.83052063 86.62280273 C-16.20895386 92.25324863 -17.65745969 97.68763787 -20 103 C-22.8125 104.6875 -22.8125 104.6875 -26 105 C-31.73038802 102.825264 -35.56470917 98.94534974 -39.875 94.75 C-49.55276152 85.42960811 -49.55276152 85.42960811 -60 77 C-57.79636974 82.94141443 -55.59074431 88.88208548 -53.38378906 94.82226562 C-52.63464117 96.83935116 -51.88593508 98.85660085 -51.13769531 100.87402344 C-50.05652665 103.78885416 -48.97372284 106.70307316 -47.890625 109.6171875 C-47.56128967 110.50614716 -47.23195435 111.39510681 -46.89263916 112.31100464 C-46.57260925 113.17114166 -46.25257935 114.03127869 -45.92285156 114.91748047 C-45.45739929 116.16848541 -45.45739929 116.16848541 -44.98254395 117.44476318 C-43.61853362 120.9920543 -42.13785411 124.48926839 -40.64056396 127.98220825 C-40 130 -40 130 -41 132 C-43.40290816 131.28970639 -45.79548248 130.55791941 -48.1875 129.8125 C-48.86103516 129.61591797 -49.53457031 129.41933594 -50.22851562 129.21679688 C-51.21948242 128.90258789 -51.21948242 128.90258789 -52.23046875 128.58203125 C-52.83270264 128.39874268 -53.43493652 128.2154541 -54.05541992 128.02661133 C-61.08312951 124.31643947 -63.03389169 117.88532121 -65.73046875 110.83203125 C-66.16579422 109.72437912 -66.60111969 108.61672699 -67.04963684 107.47550964 C-68.44125718 103.92584977 -69.814549 100.3694167 -71.1875 96.8125 C-72.09061078 94.50148926 -72.99489747 92.19093769 -73.90039062 89.88085938 C-75.70777049 85.26412546 -77.49863313 80.64144671 -79.27880859 76.01416016 C-81.13317809 71.20332693 -83.03740488 66.4160421 -84.97509766 61.63818359 C-85.4493367 60.45230148 -85.92357574 59.26641937 -86.41218567 58.04460144 C-87.31800606 55.78077211 -88.23677599 53.52206875 -89.17021179 51.26948547 C-89.57206192 50.25589462 -89.97391205 49.24230377 -90.38793945 48.19799805 C-90.74853958 47.31194382 -91.10913971 46.42588959 -91.48066711 45.51298523 C-92.13735122 42.33537507 -91.49218357 40.8357547 -90 38 C-88.3125 36.125 -88.3125 36.125 -86 35 C-80.09620456 35.22437227 -77.47476347 36.77659273 -73.3125 40.875 C-72.26730126 41.88320055 -71.22171744 42.89100202 -70.17578125 43.8984375 C-69.64936035 44.4150293 -69.12293945 44.93162109 -68.58056641 45.46386719 C-66.10700374 47.86789195 -63.55258646 50.18057042 -61 52.5 C-60.00085562 53.41487723 -59.00215873 54.33024342 -58.00390625 55.24609375 C-57.50906738 55.69968262 -57.01422852 56.15327148 -56.50439453 56.62060547 C-54.99084679 58.00839267 -53.47778749 59.39671062 -51.96484375 60.78515625 C-49.47708856 63.06806573 -46.98724147 65.34867776 -44.49658203 67.62841797 C-42.95286167 69.04320116 -41.41197221 70.461029 -39.87109375 71.87890625 C-38.87249633 72.79438047 -37.87380212 73.70974912 -36.875 74.625 C-35.98554688 75.44226563 -35.09609375 76.25953125 -34.1796875 77.1015625 C-32.14986358 79.02932113 -32.14986358 79.02932113 -30 80 C-29.87705566 78.86079102 -29.75411133 77.72158203 -29.62744141 76.54785156 C-29.05854792 72.01782439 -28.06551335 67.6599442 -26.9609375 63.234375 C-26.75916901 62.41049286 -26.55740051 61.58661072 -26.34951782 60.73776245 C-25.69591402 58.07402633 -25.0357562 55.41197012 -24.375 52.75 C-23.92159796 50.91201493 -23.46847487 49.07396103 -23.015625 47.23583984 C-22.10901647 43.55925447 -21.19952887 39.88339751 -20.28808594 36.20800781 C-19.30050702 32.22200973 -18.32315416 28.23366058 -17.35342407 24.24328613 C-16.57344206 21.03608736 -15.78616321 17.83068902 -15 14.625 C-14.7220459 13.47483398 -14.4440918 12.32466797 -14.15771484 11.13964844 C-13.89941895 10.09583008 -13.64112305 9.05201172 -13.375 7.9765625 C-13.15585937 7.08018066 -12.93671875 6.18379883 -12.7109375 5.26025391 C-12 3 -12 3 -10 0 C-6.17853346 -1.27382218 -3.89335307 -0.97333827 0 0 Z " fill="#94E1FE" transform="translate(517,174)"/>
<path d="M0 0 C5.65591247 6.26649393 8.69085494 14.45917059 8.28125 22.94140625 C6.9475427 32.70340271 2.88812996 41.21762448 -4.9375 47.375 C-12.57060502 52.63368495 -20.7348276 55.04215344 -30 54 C-40.659418 51.14664678 -48.14368884 46.25448951 -54.265625 37.109375 C-58.40036978 29.48047971 -58.33486789 19.5606331 -56.33984375 11.25 C-52.39468875 1.4127304 -44.70750822 -4.64624589 -35.5 -9.25 C-22.42138283 -13.17358515 -9.73316145 -9.30057649 0 0 Z " fill="#94E1FE" transform="translate(423,386)"/>
<path d="M0 0 C6.99123087 5.77483042 12.11274059 13.73462912 13.22265625 22.8359375 C13.89754599 32.79056122 11.17062039 40.95780778 4.7265625 48.61328125 C-0.78420956 54.63313156 -7.81468355 58.29197552 -16.00390625 59.0390625 C-27.02552479 59.25446873 -35.30964853 56.11402608 -43.40234375 48.5859375 C-50.60117501 41.18006021 -52.15584946 33.205005 -52.0546875 23.15625 C-51.65529432 18.37478237 -50.25768999 14.90030549 -47.77734375 10.8359375 C-47.35324219 10.13726562 -46.92914062 9.43859375 -46.4921875 8.71875 C-40.98260016 0.58481884 -33.50120258 -3.78857341 -23.95703125 -5.81640625 C-15.21919608 -6.77177152 -7.30096187 -4.86730791 0 0 Z " fill="#94E1FE" transform="translate(644.77734375,381.1640625)"/>
<path d="M0 0 C0.33 0 0.66 0 1 0 C1 337.92 1 675.84 1 1024 C0.67 1024 0.34 1024 0 1024 C0 686.08 0 348.16 0 0 Z " fill="#F7F7F8" transform="translate(0,0)"/>
<path d="M0 0 C-0.33 0.99 -0.66 1.98 -1 3 C-7.435 3.495 -7.435 3.495 -14 4 C-11.17991324 2.11994216 -9.65676336 1.54324907 -6.4375 0.875 C-5.65246094 0.70742188 -4.86742187 0.53984375 -4.05859375 0.3671875 C-2 0 -2 0 0 0 Z " fill="#DBFAFF" transform="translate(350,678)"/>
<path d="" fill="#D8FAFF" transform="translate(0,0)"/>
<path d="" fill="#DFF0F2" transform="translate(0,0)"/>
<path d="" fill="#F4F5F6" transform="translate(0,0)"/>
<path d="" fill="#E9FCFF" transform="translate(0,0)"/>
<path d="" fill="#D4FAFF" transform="translate(0,0)"/>
<path d="" fill="#9CE0FB" transform="translate(0,0)"/>
<path d="" fill="#9CE9FF" transform="translate(0,0)"/>
<path d="" fill="#9CEAFF" transform="translate(0,0)"/>
<path d="" fill="#9CE9FF" transform="translate(0,0)"/>
<path d="" fill="#9AE7FF" transform="translate(0,0)"/>
<path d="" fill="#9EE9FF" transform="translate(0,0)"/>
<path d="" fill="#9CE1FE" transform="translate(0,0)"/>
<path d="" fill="#9AE8FF" transform="translate(0,0)"/>
<path d="" fill="#9BE9FF" transform="translate(0,0)"/>
<path d="" fill="#A2EEFF" transform="translate(0,0)"/>
<path d="" fill="#9CE4FE" transform="translate(0,0)"/>
</svg>
